<?xml version="1.0" encoding="UTF-8" standalone="no"?><svg width="132px" height="40px" viewBox="0 0 132 40" version="1.1" xmlns="http://www.w3.org/2000/svg" xmlns:xlink="http://www.w3.org/1999/xlink">        <title>9FF616E4-8852-472D-AF68-3EF87A5A10E1</title>    <desc>Created with sketchtool.</desc>    <defs></defs>    <g id="GAMEE-Website" stroke="none" stroke-width="1" fill="none" fill-rule="evenodd">        <g id="Homepage" transform="translate(-916.000000, -499.000000)">            <g id="desktop-download-appstore" transform="translate(916.000000, 499.000000)">                <rect id="background" fill="#000000" x="0" y="0" width="131.737012" height="40" rx="4"></rect>                <path d="M22.4639278,10.1780632 C23.3416159,9.07894737 23.981125,7.56684211 23.816064,6.04214737 C22.504852,6.09058947 20.9434566,6.90972632 20.0133855,8.01595789 C19.1755303,8.96892632 18.4481705,10.5406947 18.6566112,12.0194105 C20.0818654,12.1141053 21.5469524,11.2845684 22.4639278,10.1780632" id="Fill-1" fill="#FFFFFF"></path>                <path d="M26.2606041,22.1944421 L26.2395963,22.1536632 C25.8311726,21.3285053 25.6451038,20.0386316 25.8014343,18.9937053 L25.8014343,18.9548421 L25.8025256,18.9548421 C25.9662225,17.5864211 26.8447291,16.1862526 27.5469887,15.6782947 C27.5554464,15.6722737 27.5649954,15.6651579 27.5745444,15.6574947 L27.5745444,15.6544842 L27.5764541,15.6544842 C27.732239,15.4820632 28.1761304,15.1246316 28.4759685,14.9078737 C27.3685591,13.2734316 25.5553434,12.3918947 23.7088426,12.3634316 C21.8467906,12.2066105 19.9143489,13.5457474 18.8724183,13.5150947 C17.8643183,13.5457474 16.3413917,12.3371579 14.734434,12.4135158 L14.71861,12.4110526 C14.6825967,12.4110526 14.393126,12.4272 14.393126,12.4272 C12.2631568,12.4797474 10.3749133,13.7389684 9.30269874,15.6481895 L9.30269874,15.6544842 L9.29615087,15.6544842 L9.29615087,15.6481895 C8.87190312,16.3362316 8.36307866,17.9400211 8.28723244,18.9548421 L8.28723244,19.0087579 C8.18464906,19.6527368 8.28368567,21.3690105 8.39909197,22.1944421 C8.40400288,22.2089474 8.40509419,22.2237263 8.4061855,22.2354947 L8.40864096,22.2338526 C8.49867424,23.0565474 8.91500997,24.6463789 9.22739818,25.4236421 L9.22739818,25.4304842 L9.22576121,25.4304842 C9.5253265,26.2895789 10.3629089,27.9007579 10.9033814,28.7242737 L10.9033814,28.7302947 L10.9091108,28.7302947 C12.000969,30.3028842 13.2862623,32.0700632 14.9807978,31.9939789 C16.6177666,31.9315789 17.2204439,30.9030737 19.1921728,30.9192211 C21.1628104,30.9030737 21.7081939,31.9449895 23.4351959,31.9523789 C25.1957559,31.8765684 26.2867956,30.3050737 27.3791994,28.7302947 C27.9139425,27.9188211 28.7528891,26.3574526 29.0494532,25.4304842 L29.0535457,25.4304842 C29.0868307,25.3327789 29.1367582,25.1819789 29.1719531,25.0725053 C28.0140705,24.7429895 26.7151357,23.2133684 26.2606041,22.1944421" id="Fill-3" fill="#FFFFFF"></path>                <path d="M40.2912584,13.98 C40.7371375,14.03 41.2640856,14.06 41.8923698,14.06 C43.2198735,14.06 44.2737696,13.72 44.9121875,13.09 C45.5506053,12.47 45.8951482,11.57 45.8951482,10.47 C45.8951482,9.38 45.5404717,8.6 44.9324547,8.05 C44.3345713,7.5 43.4326795,7.21 42.1659774,7.21 C41.4667579,7.21 40.8283401,7.27 40.2912584,7.35 L40.2912584,13.98 Z M41.172883,7.99 C41.4059562,7.94 41.7504992,7.9 42.2065119,7.9 C44.0710973,7.9 44.9831228,8.91 44.9729892,10.5 C44.9729892,12.32 43.9494939,13.36 42.0646413,13.36 C41.7200983,13.36 41.3958226,13.35 41.172883,13.31 L41.172883,7.99 Z M49.1277718,9.05 C47.7698673,9.05 46.6957039,10 46.6957039,11.62 C46.6957039,13.15 47.7191992,14.11 49.0467029,14.11 C50.232336,14.11 51.4889044,13.33 51.4889044,11.54 C51.4889044,10.06 50.5363445,9.05 49.1277718,9.05 L49.1277718,9.05 Z M49.1075046,9.71 C50.1614007,9.71 50.576879,10.75 50.576879,11.57 C50.576879,12.66 49.9384612,13.45 49.0872374,13.45 C48.2157464,13.45 47.5975958,12.65 47.5975958,11.59 C47.5975958,10.67 48.0536085,9.71 49.1075046,9.71 L49.1075046,9.71 Z M51.9854516,9.16 L53.4649596,14 L54.2756489,14 L55.066071,11.7 C55.2383425,11.18 55.3903467,10.68 55.5119501,10.1 L55.5322174,10.1 C55.6538207,10.67 55.7956914,11.15 55.9679629,11.69 L56.7178505,14 L57.5285398,14 L59.1093839,9.16 L58.2277593,9.16 L57.5285398,11.59 C57.3664019,12.16 57.2346649,12.67 57.153596,13.16 L57.1231951,13.16 C57.0117253,12.67 56.8698547,12.16 56.6874496,11.58 L55.9274284,9.16 L55.1775408,9.16 L54.3769851,11.63 C54.2148472,12.15 54.0527094,12.67 53.9412396,13.16 L53.9108387,13.16 C53.8196362,12.66 53.6878992,12.16 53.5460286,11.62 L52.8974771,9.16 L51.9854516,9.16 Z M60.0011421,14 L60.8929004,14 L60.8929004,11.09 C60.8929004,10.94 60.9131676,10.79 60.9537021,10.68 C61.1057063,10.19 61.5617191,9.78 62.1494688,9.78 C62.990559,9.78 63.2844338,10.43 63.2844338,11.21 L63.2844338,14 L64.1761921,14 L64.1761921,11.11 C64.1761921,9.45 63.122296,9.05 62.4433437,9.05 C61.6326544,9.05 61.0651719,9.5 60.8219651,9.96 L60.8016978,9.96 L60.7510297,9.16 L59.9606077,9.16 C59.9910085,9.56 60.0011421,9.97 60.0011421,10.47 L60.0011421,14 Z M65.6252992,14 L66.5170574,14 L66.5170574,6.9 L65.6252992,6.9 L65.6252992,14 Z M70.094224,9.05 C68.7363194,9.05 67.6621561,10 67.6621561,11.62 C67.6621561,13.15 68.6856513,14.11 70.0131551,14.11 C71.1987882,14.11 72.4553566,13.33 72.4553566,11.54 C72.4553566,10.06 71.5027966,9.05 70.094224,9.05 L70.094224,9.05 Z M70.0739567,9.71 C71.1278528,9.71 71.5433311,10.75 71.5433311,11.57 C71.5433311,12.66 70.9049133,13.45 70.0536895,13.45 C69.1821985,13.45 68.5640479,12.65 68.5640479,11.59 C68.5640479,10.67 69.0200607,9.71 70.0739567,9.71 L70.0739567,9.71 Z M77.1066865,14 C77.0458848,13.67 77.0256175,13.26 77.0256175,12.84 L77.0256175,11.03 C77.0256175,10.06 76.6608073,9.05 75.1610321,9.05 C74.5428815,9.05 73.9551318,9.22 73.5497871,9.48 L73.7524595,10.06 C74.0970024,9.84 74.5732824,9.7 75.0292951,9.7 C76.0325231,9.7 76.1439929,10.42 76.1439929,10.82 L76.1439929,10.92 C74.2490067,10.91 73.1951106,11.55 73.1951106,12.72 C73.1951106,13.42 73.7017914,14.11 74.6948858,14.11 C75.3941053,14.11 75.9210534,13.77 76.194661,13.39 L76.2250618,13.39 L76.2959972,14 L77.1066865,14 Z M76.1642601,12.37 C76.1642601,12.46 76.1439929,12.56 76.1135921,12.65 C75.9717214,13.06 75.5663768,13.46 74.927959,13.46 C74.4719462,13.46 74.0868688,13.19 74.0868688,12.62 C74.0868688,11.68 75.191433,11.51 76.1642601,11.53 L76.1642601,12.37 Z M81.8086844,6.9 L81.8086844,9.79 L81.7884172,9.79 C81.5654776,9.4 81.0587968,9.05 80.3089092,9.05 C79.1131425,9.05 78.0997809,10.04 78.1099145,11.65 C78.1099145,13.12 79.0219399,14.11 80.2075731,14.11 C81.0081287,14.11 81.6060121,13.7 81.8796197,13.16 L81.899887,13.16 L81.9404214,14 L82.7409771,14 C82.7105763,13.67 82.7004427,13.18 82.7004427,12.75 L82.7004427,6.9 L81.8086844,6.9 Z M81.8086844,11.97 C81.8086844,12.11 81.7985508,12.23 81.76815,12.35 C81.6060121,13.01 81.0587968,13.4 80.4609135,13.4 C79.4982199,13.4 79.0118063,12.59 79.0118063,11.61 C79.0118063,10.54 79.5590216,9.74 80.4811807,9.74 C81.1499994,9.74 81.636413,10.2 81.76815,10.76 C81.7985508,10.87 81.8086844,11.02 81.8086844,11.13 L81.8086844,11.97 Z M88.4056686,9.05 C87.0477641,9.05 85.9736007,10 85.9736007,11.62 C85.9736007,13.15 86.997096,14.11 88.3245997,14.11 C89.5102328,14.11 90.7668012,13.33 90.7668012,11.54 C90.7668012,10.06 89.8142413,9.05 88.4056686,9.05 L88.4056686,9.05 Z M88.3854014,9.71 C89.4392975,9.71 89.8547758,10.75 89.8547758,11.57 C89.8547758,12.66 89.2163579,13.45 88.3651342,13.45 C87.4936432,13.45 86.8754926,12.65 86.8754926,11.59 C86.8754926,10.67 87.3315053,9.71 88.3854014,9.71 L88.3854014,9.71 Z M91.8916327,14 L92.7833909,14 L92.7833909,11.09 C92.7833909,10.94 92.8036581,10.79 92.8441926,10.68 C92.9961968,10.19 93.4522096,9.78 94.0399593,9.78 C94.8810495,9.78 95.1749243,10.43 95.1749243,11.21 L95.1749243,14 L96.0666826,14 L96.0666826,11.11 C96.0666826,9.45 95.0127865,9.05 94.3338342,9.05 C93.5231449,9.05 92.9556624,9.5 92.7124556,9.96 L92.6921883,9.96 L92.6415203,9.16 L91.8510982,9.16 C91.881499,9.56 91.8916327,9.97 91.8916327,10.47 L91.8916327,14 Z M99.8667887,8 L99.8667887,9.16 L99.1067675,9.16 L99.1067675,9.83 L99.8667887,9.83 L99.8667887,12.47 C99.8667887,13.04 99.9579912,13.47 100.211332,13.73 C100.424138,13.97 100.758547,14.1 101.174025,14.1 C101.518568,14.1 101.792176,14.05 101.964447,13.98 L101.923913,13.32 C101.812443,13.35 101.640172,13.38 101.407098,13.38 C100.910551,13.38 100.73828,13.04 100.73828,12.44 L100.73828,9.83 L102.015115,9.83 L102.015115,9.16 L100.73828,9.16 L100.73828,7.77 L99.8667887,8 Z M103.018343,14 L103.910102,14 L103.910102,11.08 C103.910102,10.91 103.920235,10.78 103.970903,10.66 C104.133041,10.18 104.589054,9.78 105.16667,9.78 C106.00776,9.78 106.301635,10.44 106.301635,11.22 L106.301635,14 L107.193393,14 L107.193393,11.12 C107.193393,9.45 106.139497,9.05 105.480812,9.05 C105.146403,9.05 104.832261,9.15 104.568787,9.3 C104.295179,9.45 104.072239,9.67 103.930369,9.92 L103.910102,9.92 L103.910102,6.9 L103.018343,6.9 L103.018343,14 Z M112.584477,11.74 C112.594611,11.65 112.614878,11.51 112.614878,11.33 C112.614878,10.44 112.189266,9.05 110.588155,9.05 C109.159315,9.05 108.287824,10.2 108.287824,11.66 C108.287824,13.12 109.189716,14.1 110.699625,14.1 C111.479913,14.1 112.016995,13.94 112.331137,13.8 L112.179132,13.17 C111.844723,13.31 111.459646,13.42 110.821228,13.42 C109.92947,13.42 109.159315,12.93 109.139048,11.74 L112.584477,11.74 Z M109.149181,11.11 C109.220117,10.5 109.615328,9.68 110.517219,9.68 C111.520447,9.68 111.763654,10.55 111.753521,11.11 L109.149181,11.11 Z M47.1821175,27.5620041 L48.2947886,31.0000041 L50.7025358,31.0000041 L46.7078643,18.8680041 L43.8441043,18.8680041 L39.9041543,31.0000041 L42.220699,31.0000041 L43.2786485,27.5620041 L47.1821175,27.5620041 Z M43.6434587,25.8880041 L44.5919652,22.9000041 C44.8108513,22.1800041 44.9932564,21.3340041 45.1756615,20.6320041 L45.2121425,20.6320041 C45.3945476,21.3340041 45.5951932,22.1620041 45.8323198,22.9000041 L46.7990668,25.8880041 L43.6434587,25.8880041 Z M52.2347386,34.5640041 L54.4783213,34.5640041 L54.4783213,30.0280041 L54.5148023,30.0280041 C54.970815,30.7300041 55.901081,31.1980041 57.0137521,31.1980041 C59.0384486,31.1980041 61.0631451,29.6680041 61.0631451,26.5000041 C61.0631451,23.7640041 59.3667778,22.0360041 57.3238407,22.0360041 C55.974043,22.0360041 54.934334,22.5940041 54.2776757,23.5840041 L54.2411946,23.5840041 L54.1317516,22.2340041 L52.1617766,22.2340041 C52.1982576,23.0620041 52.2347386,23.9980041 52.2347386,25.1500041 L52.2347386,34.5640041 Z M54.4783213,25.9780041 C54.4783213,25.7980041 54.5148023,25.6000041 54.5695238,25.4200041 C54.7884099,24.4480041 55.6457139,23.7820041 56.5759798,23.7820041 C58.0169801,23.7820041 58.7830815,25.0420041 58.7830815,26.5900041 C58.7830815,28.3180041 57.944018,29.4880041 56.5212583,29.4880041 C55.5727518,29.4880041 54.7701694,28.8400041 54.5512833,27.9400041 C54.4965618,27.7420041 54.4783213,27.5440041 54.4783213,27.3280041 L54.4783213,25.9780041 Z M62.9054366,34.5640041 L65.1490192,34.5640041 L65.1490192,30.0280041 L65.1855002,30.0280041 C65.641513,30.7300041 66.571779,31.1980041 67.68445,31.1980041 C69.7091466,31.1980041 71.7338431,29.6680041 71.7338431,26.5000041 C71.7338431,23.7640041 70.0374757,22.0360041 67.9945387,22.0360041 C66.644741,22.0360041 65.605032,22.5940041 64.9483736,23.5840041 L64.9118926,23.5840041 L64.8024495,22.2340041 L62.8324745,22.2340041 C62.8689556,23.0620041 62.9054366,23.9980041 62.9054366,25.1500041 L62.9054366,34.5640041 Z M65.1490192,25.9780041 C65.1490192,25.7980041 65.1855002,25.6000041 65.2402218,25.4200041 C65.4591079,24.4480041 66.3164118,23.7820041 67.2466778,23.7820041 C68.687678,23.7820041 69.4537794,25.0420041 69.4537794,26.5900041 C69.4537794,28.3180041 68.614716,29.4880041 67.1919563,29.4880041 C66.2434498,29.4880041 65.4408674,28.8400041 65.2219813,27.9400041 C65.1672597,27.7420041 65.1490192,27.5440041 65.1490192,27.3280041 L65.1490192,25.9780041 Z M76.8959072,30.4240041 C77.5708061,30.8200041 78.9206038,31.1800041 80.2156799,31.1800041 C83.3895286,31.1800041 84.8852503,29.4880041 84.8852503,27.5440041 C84.8852503,25.7980041 83.8455413,24.7360041 81.7114017,23.9440041 C80.0697559,23.3140041 79.358376,22.8820041 79.358376,21.9460041 C79.358376,21.2440041 79.9785533,20.4880041 81.4013131,20.4880041 C82.5504651,20.4880041 83.4077691,20.8300041 83.8455413,21.0640041 L84.3927566,19.2820041 C83.7543388,18.9580041 82.7693513,18.6700041 81.4377941,18.6700041 C78.7746797,18.6700041 77.0965528,20.1820041 77.0965528,22.1620041 C77.0965528,23.9080041 78.391629,24.9700041 80.4163255,25.6900041 C81.9850094,26.2480041 82.6051867,26.7880041 82.6051867,27.7060041 C82.6051867,28.6960041 81.8026043,29.3620041 80.361604,29.3620041 C79.2124519,29.3620041 78.1180214,29.0020041 77.388401,28.5880041 L76.8959072,30.4240041 Z M87.128833,20.2540041 L87.128833,22.2340041 L85.8519973,22.2340041 L85.8519973,23.8900041 L87.128833,23.8900041 L87.128833,28.0120041 C87.128833,29.1640041 87.3477191,29.9560041 87.8219723,30.4600041 C88.2415041,30.9100041 88.9346434,31.1800041 89.7554663,31.1800041 C90.4668462,31.1800041 91.0505425,31.0900041 91.3788717,30.9640041 L91.3423906,29.2720041 C91.141745,29.3260041 90.8498969,29.3800041 90.4668462,29.3800041 C89.6095423,29.3800041 89.3176941,28.8220041 89.3176941,27.7600041 L89.3176941,23.8900041 L91.4518337,23.8900041 L91.4518337,22.2340041 L89.3176941,22.2340041 L89.3176941,19.7320041 L87.128833,20.2540041 Z M97.0699106,22.0360041 C94.3885557,22.0360041 92.4733022,23.8000041 92.4733022,26.6800041 C92.4733022,29.4880041 94.4067962,31.1980041 96.9239865,31.1980041 C99.1858097,31.1980041 101.484114,29.7580041 101.484114,26.5360041 C101.484114,23.8720041 99.7147844,22.0360041 97.0699106,22.0360041 L97.0699106,22.0360041 Z M97.0151891,23.6560041 C98.5473918,23.6560041 99.1675692,25.2220041 99.1675692,26.5900041 C99.1675692,28.3540041 98.2737842,29.5960041 96.9969485,29.5960041 C95.6289103,29.5960041 94.7898469,28.3180041 94.7898469,26.6260041 C94.7898469,25.1680041 95.4282647,23.6560041 97.0151891,23.6560041 L97.0151891,23.6560041 Z M103.326405,31.0000041 L105.569988,31.0000041 L105.569988,26.4640041 C105.569988,26.2120041 105.606469,25.9780041 105.64295,25.7800041 C105.843596,24.7900041 106.573216,24.1060041 107.649406,24.1060041 C107.923014,24.1060041 108.123659,24.1420041 108.306064,24.1780041 L108.306064,22.0900041 C108.123659,22.0540041 107.995976,22.0360041 107.77709,22.0360041 C106.828583,22.0360041 105.788874,22.6660041 105.351102,23.9080041 L105.27814,23.9080041 L105.205178,22.2340041 L103.253443,22.2340041 C103.308165,23.0260041 103.326405,23.8720041 103.326405,25.0600041 L103.326405,31.0000041 Z M117.189192,27.2380041 C117.225673,27.0400041 117.262154,26.7160041 117.262154,26.3020041 C117.262154,24.3760041 116.313648,22.0360041 113.431647,22.0360041 C110.586128,22.0360041 109.090406,24.3220041 109.090406,26.7520041 C109.090406,29.4340041 110.786774,31.1800041 113.668774,31.1800041 C114.94561,31.1800041 116.003559,30.9460041 116.769661,30.6400041 L116.441332,29.1100041 C115.766433,29.3620041 115.018572,29.5060041 113.978863,29.5060041 C112.556103,29.5060041 111.297508,28.8220041 111.242786,27.2380041 L117.189192,27.2380041 Z M111.242786,25.6900041 C111.333989,24.7900041 111.917685,23.5480041 113.303964,23.5480041 C114.799686,23.5480041 115.164496,24.8800041 115.146255,25.6900041 L111.242786,25.6900041 Z" id="Download-on-the" fill="#FFFFFF"></path>            </g>        </g>    </g></svg>