<?xml version="1.0" encoding="UTF-8" standalone="no"?><svg width="132px" height="40px" viewBox="0 0 132 40" version="1.1" xmlns="http://www.w3.org/2000/svg" xmlns:xlink="http://www.w3.org/1999/xlink">        <title>E32CD00E-A681-4333-8190-506478C8D23D</title>    <desc>Created with sketchtool.</desc>    <defs>        <linearGradient x1="19.2147947%" y1="-35.1571758%" x2="69.3023416%" y2="93.5367562%" id="linearGradient-1">            <stop stop-color="#19A3B4" offset="0%"></stop>            <stop stop-color="#5BC3AF" offset="34.816763%"></stop>            <stop stop-color="#C9F7A6" offset="92.2336229%"></stop>            <stop stop-color="#D7FEA5" offset="100%"></stop>        </linearGradient>        <path d="M17.4700206,8.60468697 L2.12665315,0.25729397 C1.69159961,0.021785354 1.29034362,-0.0330006382 0.96531189,0.0673217631 L13.5329659,12.500896 L17.4700206,8.60468697" id="path-2"></path>        <linearGradient x1="-14.698314%" y1="-114.321644%" x2="74.8444046%" y2="114.156353%" id="linearGradient-4">            <stop stop-color="#FC227C" offset="0%"></stop>            <stop stop-color="#FEEB7B" offset="100%"></stop>        </linearGradient>        <linearGradient x1="28.1511582%" y1="-14.8137139%" x2="48.1878808%" y2="82.8944571%" id="linearGradient-5">            <stop stop-color="#0E4DA0" offset="0%"></stop>            <stop stop-color="#6BFED4" offset="100%"></stop>        </linearGradient>        <path d="M0.964592793,0.0673217631 C0.497899,0.211757561 0.195878363,0.679217261 0.195878363,1.38645461 L0.19875475,23.6452206 C0.19875475,24.3446314 0.491427129,24.804976 0.944458084,24.9586614 L13.5329659,12.5030305 L0.964592793,0.0673217631" id="path-6"></path>        <linearGradient x1="132.244588%" y1="16.465744%" x2="5.95853392%" y2="126.310354%" id="linearGradient-8">            <stop stop-color="#FC472E" offset="0%"></stop>            <stop stop-color="#FC472E" offset="0.331892433%"></stop>            <stop stop-color="#893CD8" offset="100%"></stop>        </linearGradient>        <path d="M0.944458084,24.9586614 C1.27164711,25.0682334 1.68081316,25.0170049 2.12665315,24.7750927 L17.487998,16.4163156 L13.5329659,12.5030305 L0.944458084,24.9586614" id="path-9"></path>    </defs>    <g id="GAMEE-Website" stroke="none" stroke-width="1" fill="none" fill-rule="evenodd">        <g id="Homepage" transform="translate(-774.000000, -499.000000)">            <g id="desktop-download-googleplay" transform="translate(774.000000, 499.000000)">                <rect id="background" fill="#050708" x="0" y="0" width="131.737012" height="40" rx="4"></rect>                <g id="icon" transform="translate(8.902198, 8.000000)">                    <mask id="mask-3" fill="white">                        <use xlink:href="#path-2"></use>                    </mask>                    <use id="Fill-1" fill="url(#linearGradient-1)" xlink:href="#path-2"></use>                    <path d="M17.4901553,16.4163156 L22.7280561,13.5667325 C23.790162,12.9868548 23.790162,12.0433974 22.7280561,11.4649427 L17.4707397,8.60468697 L13.5329659,12.500896 L17.4901553,16.4163156" id="Fill-2" fill="url(#linearGradient-4)"></path>                    <mask id="mask-7" fill="white">                        <use xlink:href="#path-6"></use>                    </mask>                    <use id="Fill-3" fill="url(#linearGradient-5)" xlink:href="#path-6"></use>                    <mask id="mask-10" fill="white">                        <use xlink:href="#path-9"></use>                    </mask>                    <use id="Fill-4" fill="url(#linearGradient-8)" xlink:href="#path-9"></use>                </g>                <g id="google-play" transform="translate(39.521104, 19.000000)" fill="#FFFFFF">                    <polygon id="Fill-1" points="61.4186247 1.19934783 62.3146879 1.19934783 62.3146879 12.5227174 61.4186247 12.5227174"></polygon>                    <path d="M70.2377731,11.1776087 L70.2377731,6.62869565 C70.2377731,6.62869565 70.1749543,4.15780435 67.1251324,4.15780435 C64.0753106,4.15780435 63.9889112,6.48195652 63.9889112,6.48195652 L64.9557163,6.47882609 C64.9557163,6.47882609 64.908555,4.89228261 67.1015518,4.89228261 C69.2945486,4.89228261 69.270968,6.72652174 69.270968,6.72652174 L69.270968,7.82393478 L67.4788416,7.82706522 C64.9204397,7.82706522 63.6587827,8.84191304 63.6587827,10.2727174 C63.6587827,11.7033261 64.4252468,12.7183696 66.2998111,12.7183696 C68.1745639,12.7183696 69.2238068,11.3488043 69.2238068,11.3488043 C69.2238068,11.9113043 69.5067741,12.5227174 69.5067741,12.5227174 L70.544321,12.5227174 C70.544321,12.5227174 70.2377731,11.8256087 70.2377731,11.1776087 L70.2377731,11.1776087 Z M69.270968,9.55115217 C69.270968,11.2022609 67.3492426,11.9234348 66.3824375,11.9234348 C65.4156325,11.9234348 64.6138917,11.4466304 64.6138917,10.346087 C64.6138917,9.24554348 65.8753601,8.52397826 67.4080998,8.52397826 L69.270968,8.52397826 L69.270968,9.55115217 L69.270968,9.55115217 Z" id="Fill-2"></path>                    <path d="M71.16534,4.35423913 L72.1085644,4.35423913 L75.0325601,11.3163261 L77.8780796,4.35423913 L78.9469415,4.35423913 C78.9469415,4.35423913 75.2213937,13.4438478 74.8754189,14.2998261 C74.5294442,15.1558043 73.7041228,15.9466304 72.6903452,15.9466304 C72.2342019,15.9466304 71.7784358,15.6693913 71.7784358,15.6693913 L72.0300881,14.9356957 C72.0300881,14.9356957 72.2581598,15.0661957 72.7060028,15.0661957 C73.1538457,15.0661957 73.9321945,13.9901087 73.9321945,13.9901087 L74.4981292,12.5878696 L71.16534,4.35423913" id="Fill-3"></path>                    <path d="M56.7121234,4.15780435 C55.0380887,4.15780435 53.9165948,5.58215217 53.8852798,5.62206522 L53.8852798,4.35423913 L52.9894052,4.35423913 L52.9894052,15.6531522 L53.8852798,15.6531522 L53.8852798,11.1825 C53.9162175,11.235913 54.7903979,12.7183696 56.735704,12.7183696 C58.7164753,12.7183696 60.249215,11.3977174 60.249215,8.37273913 C60.249215,5.34776087 58.4099274,4.15780435 56.7121234,4.15780435 L56.7121234,4.15780435 Z M56.5706397,11.9602174 C54.9452754,11.9602174 53.9165948,10.2328043 53.8852798,10.1797826 L53.8852798,6.64884783 C53.9167835,6.60502174 55.1061895,4.94119565 56.6885428,4.94119565 C58.12696,4.94119565 59.3295712,6.4575 59.3295712,8.43808696 C59.3295712,10.4186739 58.2212825,11.9602174 56.5706397,11.9602174 L56.5706397,11.9602174 Z" id="Fill-4"></path>                    <path d="M10.9115975,1.99878261 C10.9115975,1.99878261 9.60259063,0.618065217 6.33016779,0.618065217 C2.34579916,0.618065217 0.0305604715,3.79173913 0.0305604715,6.79715217 C0.0305604715,9.42397826 1.78118501,12.7410652 6.13378846,12.7410652 C8.38375602,12.7410652 10.9115975,11.8825435 10.9115975,11.8825435 L10.9115975,9.84482609 C10.9115975,8.84328261 11.5661952,8.49795652 11.5661952,8.49795652 L8.08098098,8.49795652 L6.85365735,9.20523913 C7.51240529,9.03267391 9.25906829,9.0536087 9.25906829,9.0536087 L9.25906829,11.5792826 C9.25906829,11.5792826 8.4858129,12.0337826 7.31206442,12.0337826 C3.91645648,12.0337826 1.71591388,8.94423913 1.71591388,6.12391304 C1.71591388,2.68082609 4.08831197,1.22419565 6.15001192,1.22419565 C8.21190053,1.22419565 9.37338709,2.80702174 9.37338709,2.80702174 L8.99704054,3.44680435 L9.60259063,3.27854348 L10.9115975,1.99878261" id="Fill-5"></path>                    <path d="M16.4507773,4.19028261 C14.1151649,4.19028261 12.212304,5.9486087 12.212304,8.51478261 C12.212304,10.362913 13.6482688,12.5878696 16.1912019,12.5878696 C18.7345123,12.5878696 20.5168291,10.8297391 20.5168291,8.35336957 C20.5168291,5.877 18.7865782,4.19028261 16.4507773,4.19028261 L16.4507773,4.19028261 Z M16.6237646,12.0494348 C14.6963798,12.0494348 13.7865455,8.96321739 13.7865455,7.4021087 C13.7865455,5.841 14.807303,4.72852174 15.9836925,4.72852174 C17.6618774,4.72852174 18.8209116,6.78228261 18.8209116,9.17863043 C18.8209116,10.0038913 18.5513381,12.0494348 16.6237646,12.0494348 L16.6237646,12.0494348 Z" id="Fill-6"></path>                    <path d="M25.5389333,4.19458696 C23.2044528,4.19458696 21.3023464,5.95213043 21.3023464,8.51673913 C21.3023464,10.364087 22.7375567,12.5878696 25.2795466,12.5878696 C27.8215364,12.5878696 29.6027214,10.8305217 29.6027214,8.35552174 C29.6027214,5.88052174 27.8736024,4.19458696 25.5389333,4.19458696 L25.5389333,4.19458696 Z M25.711732,12.0498261 C23.7854791,12.0498261 22.8758334,8.96497826 22.8758334,7.40465217 C22.8758334,5.84452174 23.8964023,4.73243478 25.0720372,4.73243478 C26.7496562,4.73243478 27.9081244,6.78541304 27.9081244,9.18019565 C27.9081244,10.0052609 27.6385509,12.0498261 25.711732,12.0498261 L25.711732,12.0498261 Z" id="Fill-7"></path>                    <path d="M36.3092358,11.9926957 C35.475614,11.3959565 35.3124362,11.1105 35.3124362,10.8520435 C35.3124362,10.5937826 35.3211139,10.3844348 35.9140247,9.80080435 C36.506747,9.21678261 37.0485351,8.60634783 37.0485351,7.50130435 C37.0485351,5.86134783 35.9828801,5.13058696 35.9828801,5.13058696 L36.9966577,5.09517391 L38.0104353,4.47104348 L34.0581363,4.47104348 C32.0302038,4.47104348 30.5006711,6.0933913 30.5006711,7.83997826 C30.5006711,9.06965217 31.5059597,10.5399783 33.4908812,10.5399783 C33.69707,10.5399783 33.8345921,10.4955652 33.8345921,10.4955652 C33.8345921,10.4955652 33.714614,10.7675217 33.714614,11.1285 C33.714614,11.7168261 34.2039588,12.2425435 34.2039588,12.2425435 C34.2039588,12.2425435 29.6240383,12.2470435 29.6240383,15.2902174 C29.6240383,17.1303261 31.6261265,17.8211739 33.2675256,17.8211739 C34.9089248,17.8211739 37.7184131,16.9035652 37.7184131,14.5592609 C37.7184131,13.4411087 37.1430462,12.5900217 36.3092358,11.9926957 L36.3092358,11.9926957 Z M34.1352921,10.0054565 C32.9368311,10.0054565 31.9828539,8.14754348 31.9828539,7.0245 C31.9828539,5.90145652 32.5240761,5.09928261 33.4778647,5.09928261 C34.4318419,5.09928261 35.5657863,6.23563043 35.5657863,8.30778261 C35.5657863,9.02954348 35.334319,10.0054565 34.1352921,10.0054565 L34.1352921,10.0054565 Z M34.0453085,17.0636087 C33.4908812,17.0636087 31.1322542,16.8364565 31.1322542,14.8981304 C31.1322542,12.96 33.8513815,12.7792174 34.1671731,12.7792174 C34.4833419,12.7792174 34.75367,12.8263696 34.75367,12.8263696 C35.5920079,13.5946957 36.5197635,13.9760217 36.5197635,15.1786957 C36.5197635,16.9035652 34.5991699,17.0636087 34.0453085,17.0636087 L34.0453085,17.0636087 Z" id="Fill-8"></path>                    <path d="M37.808208,0.650543478 L38.9387568,0.0109565217 L41.4190598,0.0109565217 C40.8410519,0.330652174 40.6246762,0.584021739 40.6097732,2.07665217 C40.5946816,3.5688913 40.519601,11.1711522 40.519601,11.1711522 C40.519601,11.7401087 40.9966839,11.8942826 41.4266056,11.8942826 C41.8178551,11.8942826 41.9972564,11.9731304 41.9972564,11.9731304 L41.4707485,12.353087 L38.4633717,12.353087 C38.4633717,12.353087 38.8951799,11.9527826 38.9004619,11.5534565 L39.0547734,0.654065217 L37.808208,0.650543478" id="Fill-9"></path>                    <path d="M48.776399,6.37317391 C48.776399,6.37317391 48.3594938,4.15780435 45.8237292,4.15780435 C43.2881533,4.15780435 41.9678278,6.22936957 41.9678278,8.26473913 C41.9678278,10.299913 43.1315781,12.5878696 46.0319932,12.5878696 C48.0640759,12.5878696 48.9846629,11.0206957 48.9846629,11.0206957 C48.9846629,11.0206957 48.0120099,11.6152826 46.9350362,11.6152826 C45.320236,11.6152826 43.4441626,9.84971739 43.4441626,7.25615217 C43.4441626,5.50858696 44.6188543,4.80619565 45.3549467,4.80619565 C46.8312816,4.80619565 47.1001005,6.18417391 46.9703128,6.42736957 C46.8399592,6.67056522 43.4964173,8.08454348 43.4964173,8.08454348 L44.8337209,8.01234783 L48.776399,6.37317391" id="Fill-10"></path>                </g>                <path d="M45.4898036,11.46 L43.2401408,11.46 L43.2401408,12.16 L44.6284462,12.16 L44.6284462,14.17 C44.4257739,14.27 44.0305628,14.35 43.4529467,14.35 C41.861969,14.35 40.8182065,13.34 40.8182065,11.63 C40.8182065,9.94 41.9025034,8.92 43.5644165,8.92 C44.2535024,8.92 44.7095151,9.05 45.0743253,9.21 L45.2871313,8.5 C44.9932564,8.36 44.3751058,8.19 43.5846837,8.19 C41.2944864,8.19 39.8960474,9.66 39.8859138,11.67 C39.8859138,12.72 40.250724,13.62 40.8384737,14.18 C41.5072924,14.81 42.3585162,15.07 43.392145,15.07 C44.3143041,15.07 45.0945926,14.84 45.4898036,14.7 L45.4898036,11.46 Z M50.7998185,12.74 C50.8099522,12.65 50.8302194,12.51 50.8302194,12.33 C50.8302194,11.44 50.4046075,10.05 48.8034961,10.05 C47.3746562,10.05 46.5031652,11.2 46.5031652,12.66 C46.5031652,14.12 47.4050571,15.1 48.9149659,15.1 C49.6952544,15.1 50.232336,14.94 50.5464781,14.8 L50.3944739,14.17 C50.0600645,14.31 49.6749871,14.42 49.0365693,14.42 C48.1448111,14.42 47.3746562,13.93 47.354389,12.74 L50.7998185,12.74 Z M47.3645226,12.11 C47.4354579,11.5 47.830669,10.68 48.7325608,10.68 C49.7357888,10.68 49.9789956,11.55 49.968862,12.11 L47.3645226,12.11 Z M52.1374559,9 L52.1374559,10.16 L51.3774347,10.16 L51.3774347,10.83 L52.1374559,10.83 L52.1374559,13.47 C52.1374559,14.04 52.2286584,14.47 52.4819988,14.73 C52.6948048,14.97 53.0292141,15.1 53.4446924,15.1 C53.7892353,15.1 54.062843,15.05 54.2351145,14.98 L54.19458,14.32 C54.0831102,14.35 53.9108387,14.38 53.6777656,14.38 C53.1812184,14.38 53.0089469,14.04 53.0089469,13.44 L53.0089469,10.83 L54.2857825,10.83 L54.2857825,10.16 L53.0089469,10.16 L53.0089469,8.77 L52.1374559,9 Z M58.1973584,15 L58.1973584,10.16 L57.3056002,10.16 L57.3056002,15 L58.1973584,15 Z M57.7514793,8.25 C57.4272036,8.25 57.1941304,8.49 57.1941304,8.8 C57.1941304,9.1 57.41707,9.34 57.7312121,9.34 C58.0858887,9.34 58.3088282,9.1 58.2986946,8.8 C58.2986946,8.49 58.0858887,8.25 57.7514793,8.25 L57.7514793,8.25 Z M59.8795387,9 L59.8795387,10.16 L59.1195175,10.16 L59.1195175,10.83 L59.8795387,10.83 L59.8795387,13.47 C59.8795387,14.04 59.9707413,14.47 60.2240817,14.73 C60.4368876,14.97 60.771297,15.1 61.1867752,15.1 C61.5313182,15.1 61.8049258,15.05 61.9771973,14.98 L61.9366629,14.32 C61.8251931,14.35 61.6529216,14.38 61.4198484,14.38 C60.9233012,14.38 60.7510297,14.04 60.7510297,13.44 L60.7510297,10.83 L62.0278654,10.83 L62.0278654,10.16 L60.7510297,10.16 L60.7510297,8.77 L59.8795387,9 Z M67.2568114,10.05 C65.8989068,10.05 64.8247435,11 64.8247435,12.62 C64.8247435,14.15 65.8482387,15.11 67.1757425,15.11 C68.3613756,15.11 69.617944,14.33 69.617944,12.54 C69.617944,11.06 68.6653841,10.05 67.2568114,10.05 L67.2568114,10.05 Z M67.2365442,10.71 C68.2904403,10.71 68.7059185,11.75 68.7059185,12.57 C68.7059185,13.66 68.0675007,14.45 67.216277,14.45 C66.3447859,14.45 65.7266354,13.65 65.7266354,12.59 C65.7266354,11.67 66.1826481,10.71 67.2365442,10.71 L67.2365442,10.71 Z M70.7427754,15 L71.6345337,15 L71.6345337,12.09 C71.6345337,11.94 71.6548009,11.79 71.6953354,11.68 C71.8473396,11.19 72.3033523,10.78 72.8911021,10.78 C73.7321922,10.78 74.0260671,11.43 74.0260671,12.21 L74.0260671,15 L74.9178253,15 L74.9178253,12.11 C74.9178253,10.45 73.8639292,10.05 73.184977,10.05 C72.3742876,10.05 71.8068051,10.5 71.5635983,10.96 L71.5433311,10.96 L71.492663,10.16 L70.702241,10.16 C70.7326418,10.56 70.7427754,10.97 70.7427754,11.47 L70.7427754,15 Z" id="Get-it-on" fill="#FFFFFF"></path>            </g>        </g>    </g></svg>